# xmcd
#
# Track frame offsets: 
#        150
#        10900
#        20997
#        30927
#        41345
#        62360
#        73975
#        86315
#        96035
#        106857
#        116895
#        128337
#        138057
#        148935
#        159725
#        170377
#        181890
#        191612
#        201650
#        211305
#        224540
#        234802
#        245685
#        256285
#
# Disc length: 3564 seconds
#
# Revision: 0
# Processed by: cddbd v1.5.1PL0 Copyright (c) Steve Scherf et al.
# Submitted via: ExactAudioCopy v0.95a5
#
DISCID=510dea18
DTITLE=Fats Domino - Fats Domino
DYEAR=1998
DGENRE=
TTITLE0=Blueberry Hill.wav
TTITLE1=Be my guest.wav
TTITLE2=I can't go on without you.wav
TTITLE3=I'm gonna be a wheel someday.wav
TTITLE4=Jambalaya.wav
TTITLE5=Red sails in the sunset.wav
TTITLE6=Lazy Lady.wav
TTITLE7=Sally was a good old girl.wav
TTITLE8=Song for Rosemary.wav
TTITLE9=Tell me the truth baby.wav
TTITLE10=The fat man.wav
TTITLE11=When I'm walking.wav
TTITLE12=There goes my heart again.wav
TTITLE13=Kansas City.wav
TTITLE14=Let me be your sweetheart.wav
TTITLE15=Man that's all.wav
TTITLE16=Reelin' and Rockin'
TTITLE17=The girl I'm gonna marry.wav
TTITLE18=Wigs.wav
TTITLE19=Heartbreak hill.wav
TTITLE20=Just a lonely man.wav
TTITLE21=I got a right to cry.wav
TTITLE22=Bye baby bye, bye.wav
TTITLE23=If you don't know what love is.wav
EXTD=
EXTT0=
EXTT1=
EXTT2=
EXTT3=
EXTT4=
EXTT5=
EXTT6=
EXTT7=
EXTT8=
EXTT9=
EXTT10=
EXTT11=
EXTT12=
EXTT13=
EXTT14=
EXTT15=
EXTT16=
EXTT17=
EXTT18=
EXTT19=
EXTT20=
EXTT21=
EXTT22=
EXTT23=
PLAYORDER=
